<svg width="760" height="560" viewBox="0 0 760 560" fill="none" xmlns="http://www.w3.org/2000/svg">
  <rect width="760" height="560" rx="36" fill="#0D1728"/>
  <circle cx="642" cy="96" r="120" fill="#4DA3FF" fill-opacity="0.12"/>
  <circle cx="112" cy="480" r="120" fill="#71F0CB" fill-opacity="0.1"/>
  <rect x="222" y="72" width="220" height="416" rx="34" fill="#07101C" stroke="#E7EDF7" stroke-opacity="0.15" stroke-width="3"/>
  <rect x="242" y="116" width="180" height="286" rx="22" fill="url(#screen)"/>
  <circle cx="332" cy="448" r="11" fill="#71F0CB"/>
  <rect x="454" y="165" width="142" height="94" rx="24" fill="#111F35" stroke="#E7EDF7" stroke-opacity="0.12"/>
  <rect x="476" y="192" width="20" height="40" rx="10" fill="#4DA3FF"/>
  <rect x="505" y="180" width="20" height="52" rx="10" fill="#71F0CB"/>
  <rect x="534" y="170" width="20" height="62" rx="10" fill="#4DA3FF" fill-opacity="0.8"/>
  <rect x="563" y="186" width="20" height="46" rx="10" fill="#71F0CB" fill-opacity="0.7"/>
  <circle cx="176" cy="184" r="56" fill="#111F35" stroke="#E7EDF7" stroke-opacity="0.12"/>
  <circle cx="176" cy="184" r="22" fill="#4DA3FF"/>
  <rect x="118" y="266" width="116" height="150" rx="22" fill="#111F35" stroke="#E7EDF7" stroke-opacity="0.12"/>
  <path d="M144 362H208" stroke="#71F0CB" stroke-width="8" stroke-linecap="round"/>
  <path d="M144 330H208" stroke="#4DA3FF" stroke-width="8" stroke-linecap="round"/>
  <path d="M144 298H189" stroke="#E7EDF7" stroke-opacity="0.65" stroke-width="8" stroke-linecap="round"/>
  <defs>
    <linearGradient id="screen" x1="242" y1="116" x2="422" y2="402" gradientUnits="userSpaceOnUse">
      <stop stop-color="#4DA3FF"/>
      <stop offset="1" stop-color="#71F0CB"/>
    </linearGradient>
  </defs>
</svg>
